<svg width="20" height="20" viewBox="0 0 20 20" fill="none" xmlns="http://www.w3.org/2000/svg">
<path opacity="0.4" d="M16.3694 7.90705C16.3694 7.96371 15.9253 13.581 15.6716 15.9451C15.5127 17.3959 14.5775 18.2759 13.1746 18.3009C12.0967 18.325 11.0414 18.3333 10.0032 18.3333C8.90101 18.3333 7.8231 18.325 6.7768 18.3009C5.4209 18.2684 4.48482 17.3709 4.33407 15.9451C4.0731 13.5727 3.63707 7.96371 3.62897 7.90705C3.62087 7.73622 3.67598 7.57373 3.78782 7.44206C3.89804 7.3204 4.05689 7.24707 4.22385 7.24707H15.7826C15.9488 7.24707 16.0995 7.3204 16.2187 7.44206C16.3297 7.57373 16.3856 7.73622 16.3694 7.90705Z" fill="#EB5757"/>
<path d="M17.5 4.98074C17.5 4.63825 17.2301 4.36993 16.9059 4.36993H14.4762C13.9818 4.36993 13.5522 4.01827 13.442 3.52246L13.3059 2.91498C13.1154 2.18084 12.4581 1.66669 11.7206 1.66669H8.2802C7.53458 1.66669 6.88378 2.18084 6.68603 2.95498L6.55879 3.52329C6.44775 4.01827 6.01821 4.36993 5.52464 4.36993H3.09488C2.76988 4.36993 2.5 4.63825 2.5 4.98074V5.29739C2.5 5.63155 2.76988 5.90821 3.09488 5.90821H16.9059C17.2301 5.90821 17.5 5.63155 17.5 5.29739V4.98074Z" fill="#EB5757"/>
</svg>
