<svg width="164" height="286" viewBox="0 0 164 286" fill="none" xmlns="http://www.w3.org/2000/svg">
<circle cx="99.9429" cy="123.829" r="6.82918" fill="#C81912"/>
<circle cx="145" cy="114" r="13" fill="#C81912"/>
<path fill-rule="evenodd" clip-rule="evenodd" d="M98.5511 136.439C98.4191 135.778 97.9357 135.243 97.2918 135.044V135.044C96.5686 134.821 95.7827 135.065 95.3124 135.658L92.6097 139.065C90.7585 141.398 87.7904 142.502 84.8235 142.237C77.5519 141.589 70.046 142.17 62.5798 144.141C28.0482 153.255 7.4433 188.637 16.5575 223.168C25.6718 257.7 61.0537 278.305 95.5853 269.191C130.117 260.077 150.722 224.695 141.608 190.163C136.381 170.362 122.518 155.14 105.13 147.475C102.234 146.198 100.001 143.697 99.3809 140.593L98.5511 136.439Z" fill="#C81912"/>
<circle cx="87.5475" cy="91.5475" r="3.49096" transform="rotate(-22.0902 87.5475 91.5475)" fill="#C81912"/>
<path fill-rule="evenodd" clip-rule="evenodd" d="M133.806 67.6794C134.134 67.4706 134.493 67.3124 134.866 67.2006C149.012 62.962 159.32 49.8448 159.32 34.32C159.32 15.3656 143.954 0 125 0C106.046 0 90.68 15.3656 90.68 34.32C90.68 47.8227 98.4778 59.5042 109.816 65.1068C109.829 65.1132 109.823 65.1326 109.809 65.1315V65.1315C109.8 65.1308 109.793 65.1396 109.796 65.1483L112.904 74.9903C113.695 77.4949 116.644 78.5705 118.861 77.1631L133.806 67.6794Z" fill="#C81912"/>
<path d="M134.814 27.638C135.642 26.8096 135.642 25.4664 134.814 24.638L134.362 24.1866C133.534 23.3581 132.191 23.3581 131.362 24.1866L125 30.5486L118.638 24.1866C117.81 23.3581 116.466 23.3581 115.638 24.1866L115.187 24.638C114.358 25.4664 114.358 26.8096 115.187 27.638L121.549 34L115.187 40.3621C114.358 41.1905 114.358 42.5336 115.187 43.362L115.638 43.8135C116.466 44.6419 117.81 44.6419 118.638 43.8135L125 37.4514L131.362 43.8135C132.191 44.6419 133.534 44.6419 134.362 43.8135L134.814 43.362C135.642 42.5336 135.642 41.1905 134.814 40.3621L128.451 34L134.814 27.638Z" fill="white"/>
</svg>
